<svg id="Layer_1" data-name="Layer 1" xmlns="http://www.w3.org/2000/svg" viewBox="0 0 360 143.95"><defs><style>.cls-1{fill:#372c4c;}.cls-2{fill:#0db99c;}.cls-3{fill:#64eea5;}.cls-4{fill:#21cb89;}</style></defs><path class="cls-1" d="M144.83,50.37h3.55a1.65,1.65,0,0,1,1.54,1.05l16.44,42.09L182.8,51.42a1.65,1.65,0,0,1,1.54-1.05h3.54a1.64,1.64,0,0,1,1.53,2.26L170.6,99.29a1.66,1.66,0,0,1-1.53,1h-5.49a1.65,1.65,0,0,1-1.53-1L143.3,52.63A1.65,1.65,0,0,1,144.83,50.37Z"/><path class="cls-1" d="M204.12,63.25c10.94,0,17.38,8.54,17.38,19.4h0a1.43,1.43,0,0,1-1.42,1.42H192.22c.45,6.81,5.24,12.51,13,12.51a16,16,0,0,0,9.88-3.42,1.64,1.64,0,0,1,2.35.32l.75,1a1.65,1.65,0,0,1-.27,2.24,20,20,0,0,1-13.24,4.49c-10.71,0-18.42-7.71-18.42-19C186.3,71.71,193.79,63.25,204.12,63.25ZM192.22,80H216c-.08-5.39-3.67-12.06-11.91-12.06C196.34,67.89,192.52,74.41,192.22,80Z"/><path class="cls-1" d="M230,64.15h2.32a1.65,1.65,0,0,1,1.65,1.65V70a16,16,0,0,1,10.18-6.46A1.66,1.66,0,0,1,246,65.17V67.3a1.64,1.64,0,0,1-1.7,1.65h-.55c-3.44,0-8.16,2.85-9.81,5.77v24a1.65,1.65,0,0,1-1.65,1.65H230a1.64,1.64,0,0,1-1.64-1.65V65.8A1.64,1.64,0,0,1,230,64.15Z"/><path class="cls-1" d="M249.87,54.26c0-3.08,3.73-5.2,6.66-2.52a2,2,0,0,1,.29.36,3.86,3.86,0,0,1-3.2,6A3.83,3.83,0,0,1,249.87,54.26Zm2.62,9.89h2.32a1.65,1.65,0,0,1,1.65,1.65V98.67a1.65,1.65,0,0,1-1.65,1.65h-2.32a1.64,1.64,0,0,1-1.64-1.65V65.8A1.64,1.64,0,0,1,252.49,64.15Z"/><path class="cls-1" d="M267,92.76V69.09h-4.35A1.64,1.64,0,0,1,261,67.44V65.8a1.64,1.64,0,0,1,1.64-1.65H267V55.91a1.65,1.65,0,0,1,1.65-1.65H271a1.64,1.64,0,0,1,1.64,1.65v8.24h5.7a1.64,1.64,0,0,1,1.64,1.65v1.64a1.64,1.64,0,0,1-1.64,1.65h-5.7V91.56c0,2.69,1.2,4.64,3.67,4.64a5.91,5.91,0,0,0,2.37-.5,1.64,1.64,0,0,1,2.2.9l.46,1.17a1.63,1.63,0,0,1-.59,2,9.83,9.83,0,0,1-5.71,1.5C269.67,101.22,267,98.15,267,92.76Z"/><path class="cls-1" d="M301.38,63.25c10.94,0,17.38,8.54,17.38,19.4h0a1.43,1.43,0,0,1-1.43,1.42H289.47c.45,6.81,5.25,12.51,13,12.51a16,16,0,0,0,9.89-3.42,1.64,1.64,0,0,1,2.35.32l.74,1a1.65,1.65,0,0,1-.26,2.24A20,20,0,0,1,302,101.22c-10.71,0-18.42-7.71-18.42-19C283.56,71.71,291.05,63.25,301.38,63.25ZM289.47,80h23.74c-.07-5.39-3.67-12.06-11.9-12.06C293.59,67.89,289.77,74.41,289.47,80Z"/><path class="cls-2" d="M81.36,110.89l.58,0,.41,0,.44,0a22.62,22.62,0,0,0,12-5.19L80.11,77.28h0L80,77,65.38,105.54A22.62,22.62,0,0,0,78,110.83h.13l.8.06h.22l1,0,.92,0Z"/><path class="cls-3" d="M65.41,105.48,80,77,71.58,60.62A3,3,0,0,0,68.9,59H44.27a3,3,0,0,0-2.68,4.42L59.82,98.64A22.85,22.85,0,0,0,65.41,105.48Z"/><path class="cls-4" d="M94.76,105.61Z"/><path class="cls-4" d="M128.92,33H104.27a3,3,0,0,0-2.69,1.65l-21.47,42h0L80,77l.15.29h0L94.8,105.57a22.67,22.67,0,0,0,5.61-7.07l31.2-61.08A3,3,0,0,0,128.92,33Z"/></svg>